<?xml version="1.0" encoding="UTF-8"?>
<svg width="227px" height="83px" viewBox="0 0 227 83" version="1.1" xmlns="http://www.w3.org/2000/svg" xmlns:xlink="http://www.w3.org/1999/xlink">
    <!-- Generator: Sketch 61.2 (89653) - https://sketch.com -->
    <title>Group 2 Copy</title>
    <desc>Created with Sketch.</desc>
    <g id="Page-1" stroke="none" stroke-width="1" fill="none" fill-rule="evenodd">
        <g id="logo.svg" transform="translate(-79.000000, -185.000000)" fill-rule="nonzero">
            <g id="Group-2-Copy" transform="translate(79.000000, 185.000000)">
                <path d="M218.764,53.818 C220.285,53.818 222.037,54.047 222.741,54.249 L221.407,62.661 C221.091,64.627 219.956,65.689 217.946,65.474 L214.53,65.129 L214.744,63.794 L217.974,63.794 C218.691,63.794 219.265,63.35 219.41,62.431 L219.625,61.039 C218.994,61.427 218.291,61.584 217.645,61.584 C215.407,61.584 215.018,59.861 215.42,57.32 C215.822,54.751 217.057,53.818 218.764,53.818 Z M195.248,53.804 C196.885,53.789 198.348,54.249 198.232,56 C198.003,59.474 193.798,58.799 193.265,58.584 C193.066,59.746 193.353,60.048 194.372,60.063 C195.22,60.092 196.597,59.962 197.485,59.819 L197.241,61.255 C196.095,61.6 194.858,61.772 193.264,61.671 C191.442,61.585 190.854,60.049 191.371,57.265 C191.816,54.924 192.447,53.818 195.248,53.804 Z M149.326,54.694 L148.322,61.555 L146.771,61.555 L146.47,60.766 C146.097,61.24 145.077,61.656 144.159,61.656 C142.68,61.656 141.559,60.451 142.163,57.306 C142.766,54.163 144.417,53.876 145.765,53.804 C146.857,53.746 148.593,53.991 149.326,54.694 Z M177.301,54.694 L176.297,61.555 L174.744,61.555 L174.443,60.766 C174.072,61.24 173.05,61.656 172.134,61.656 C170.654,61.656 169.534,60.451 170.136,57.306 C170.74,54.163 172.392,53.876 173.74,53.804 C174.832,53.746 176.568,53.991 177.301,54.694 Z M202.543,51.809 L202.197,53.933 L203.906,53.933 L203.662,55.469 L201.953,55.469 L201.48,58.526 C201.292,59.733 201.496,59.89 201.91,60.048 C201.91,60.048 202.685,60.32 202.758,60.32 L202.557,61.584 L201.178,61.584 C199.914,61.584 199.112,60.795 199.412,58.842 L199.945,55.469 L198.722,55.469 L198.896,54.35 L200.189,53.933 L200.861,51.809 L202.543,51.809 Z M126.804,51.062 L127.866,58.928 L131.541,51.062 L133.78,51.062 L128.642,61.57 L126.316,61.57 L124.694,51.062 L126.804,51.062 Z M163.012,51.062 L163.645,58.24 L166.5,51.062 L169.329,51.062 L168.653,61.57 L166.657,61.57 L167.161,54.551 L164.318,61.57 L162.036,61.57 L161.39,54.551 L159.697,61.57 L157.674,61.57 L160.271,51.062 L163.012,51.062 Z M187.183,50.344 L186.163,56.719 C187.284,56.316 188.647,55.182 189.005,53.948 L191.146,53.948 C190.615,55.828 189.236,56.977 188.345,57.436 L190.685,61.57 L188.447,61.57 L186.511,58.068 L185.964,58.082 L185.403,61.57 L183.393,61.57 L185.173,50.344 L187.183,50.344 Z M183.062,53.876 C183.394,53.876 183.708,53.876 183.896,53.962 L183.593,55.9 C183.394,55.886 182.933,55.857 182.501,55.857 C181.669,55.857 181.036,56.001 180.421,56.704 L179.659,61.57 L177.651,61.57 L178.857,53.947 L180.552,53.947 L180.708,54.909 C181.325,54.391 182.114,53.876 183.062,53.876 Z M141.426,53.876 C141.756,53.876 142.072,53.876 142.259,53.962 L141.957,55.9 C141.756,55.886 141.297,55.857 140.865,55.857 C140.034,55.857 139.402,56.001 138.785,56.704 L138.023,61.57 L136.013,61.57 L137.222,53.947 L138.915,53.947 L139.072,54.909 C139.69,54.391 140.479,53.876 141.426,53.876 Z M206.724,53.947 L205.519,61.569 L203.509,61.569 L204.716,53.947 L206.724,53.947 Z M135.793,53.947 L134.587,61.569 L132.577,61.569 L133.783,53.947 L135.793,53.947 Z M212.604,53.818 C214.383,53.818 214.686,55.038 214.456,56.488 L213.651,61.569 L211.641,61.569 L212.446,56.459 C212.561,55.714 212.272,55.427 211.772,55.427 C210.967,55.427 210.479,55.641 209.819,56.086 L208.958,61.569 L206.948,61.569 L208.156,53.947 L209.763,53.947 L210.034,54.765 C210.766,54.291 211.442,53.818 212.604,53.818 Z M153.396,50.33 L152.089,58.54 C151.901,59.732 152.117,59.876 152.534,60.033 C152.534,60.033 153.309,60.32 153.366,60.32 L153.178,61.569 L151.887,61.569 C150.523,61.569 149.72,60.808 150.034,58.857 L151.386,50.33 L153.396,50.33 Z M220.529,55.355 L218.994,55.355 C217.846,55.355 217.558,56.775 217.43,57.537 C217.226,58.885 217.056,60.005 218.191,60.005 C218.836,60.005 219.179,59.947 219.841,59.69 L220.529,55.355 Z M173.641,55.426 C172.995,55.554 172.393,55.755 172.09,57.679 C171.875,59.114 171.974,59.947 172.865,59.947 C173.697,59.947 174.156,59.675 174.615,59.23 L175.162,55.554 C174.719,55.397 174.057,55.325 173.641,55.426 Z M145.666,55.426 C145.02,55.554 144.418,55.755 144.116,57.679 C143.9,59.114 144,59.947 144.89,59.947 C145.723,59.947 146.183,59.675 146.642,59.23 L147.187,55.554 C146.743,55.397 146.082,55.325 145.666,55.426 Z M195.103,55.426 C193.74,55.44 193.611,56.315 193.423,57.263 C193.423,57.264 195.921,57.68 196.167,56.272 C196.294,55.569 195.907,55.412 195.103,55.426 Z M135.978,51.192 C136.194,51.192 136.28,51.35 136.252,51.551 L136.05,52.827 C136.021,53.043 135.878,53.157 135.677,53.157 L134.169,53.157 C133.968,53.157 133.855,53.028 133.882,52.827 L134.07,51.551 C134.098,51.335 134.242,51.192 134.472,51.192 L135.978,51.192 Z M206.911,51.192 C207.126,51.192 207.214,51.35 207.184,51.551 L206.983,52.827 C206.956,53.043 206.809,53.157 206.61,53.157 L205.102,53.157 C204.903,53.157 204.788,53.028 204.815,52.827 L205.003,51.551 C205.03,51.335 205.175,51.192 205.405,51.192 L206.911,51.192 Z M108.909,30.418 L108.353,33.94 L101.463,33.94 C101.062,33.94 100.783,33.94 100.691,34.497 L100.66,34.683 C100.567,35.177 100.908,35.177 101.278,35.177 L104.368,35.177 C107.86,35.177 108.693,37.803 108.292,40.244 L108.014,42.067 C107.489,45.434 105.233,46.021 103.256,46.021 L102.57866,46.021774 C98.4187337,46.0300598 94.6194103,46.0800256 93.739,44.878 L94.295,41.356 L101.432,41.356 C101.957,41.356 102.05,41.139 102.112,40.831 L102.143,40.677 C102.205,40.306 102.112,40.12 101.618,40.12 L98.682,40.12 C95.777,40.12 94.047,37.988 94.541,34.807 L94.789,33.385 C95.19,30.851 96.612,29.307 99.794,29.307 C104.212,29.307 108.106,29.214 108.909,30.418 Z M218.986,29.152 C221.519,29.152 225.195,29.553 226.771,31.067 L224.609,45.805 L219.88,45.805 L218.954,44.26 C218.212,45.619 216.265,46.021 214.628,46.021 C211.692,46.021 209.345,42.437 210.673,36.226 C212.126,29.368 215.771,29.152 218.986,29.152 Z M86.37,29.152 C88.904,29.152 92.58,29.553 94.156,31.067 L91.993,45.805 L87.266,45.805 L86.339,44.26 C85.597,45.619 83.651,46.021 82.014,46.021 C79.078,46.021 76.73,42.437 78.059,36.226 C79.511,29.368 83.157,29.152 86.37,29.152 Z M153.212,29.152 C155.746,29.152 159.423,29.553 160.999,31.067 L158.835,45.805 L154.108,45.805 L153.18,44.26 C152.44,45.619 150.492,46.021 148.855,46.021 C145.919,46.021 143.572,42.437 144.901,36.226 C146.353,29.368 150,29.152 153.212,29.152 Z M186.099,29.152 C188.632,29.152 192.31,29.553 193.884,31.067 L191.722,45.805 L186.995,45.805 L186.067,44.26 C185.325,45.619 183.378,46.021 181.741,46.021 C178.805,46.021 176.458,42.437 177.786,36.226 C179.24,29.368 182.884,29.152 186.099,29.152 Z M118.603,24.856 L117.862,29.429 L120.612,29.429 L119.963,33.57 L117.214,33.57 L116.379,38.76 C116.04,40.954 116.409,41.386 117.028,41.757 C117.028,41.757 118.232,42.405 118.449,42.405 L117.893,45.897 L114.185,45.897 C111.713,45.897 109.519,44.351 110.199,39.996 L111.219,33.569 L108.902,33.569 L109.366,30.604 L111.868,29.429 L113.474,24.856 L118.603,24.856 Z M173.351,29.182 C177.615,29.182 177.675,31.901 177.121,35.362 L175.453,45.867 L169.459,45.867 L171.127,35.238 C171.344,33.94 171.066,33.632 170.385,33.632 C169.242,33.632 168.44,33.941 167.944,34.776 L166.184,45.868 L160.19,45.868 L162.784,29.461 L167.789,29.461 L168.531,31.067 C169.705,30.109 170.847,29.182 173.351,29.182 Z M206.235,29.182 C210.501,29.182 210.561,31.901 210.005,35.362 L208.337,45.867 L202.343,45.867 L204.013,35.238 C204.228,33.94 203.951,33.632 203.271,33.632 C202.126,33.632 201.324,33.941 200.83,34.776 L199.068,45.868 L193.076,45.868 L195.669,29.461 L200.675,29.461 L201.417,31.067 C202.591,30.109 203.733,29.182 206.235,29.182 Z M139.185,23.25 C144.005,23.25 145.612,26.216 144.994,30.048 C144.685,31.964 143.202,33.941 140.946,34.126 C143.202,34.497 144.437,36.876 144.036,39.812 C143.231263,45.4760351 140.700349,45.8479495 136.249206,45.8670755 L126.085,45.868 L129.669,23.25 L139.185,23.25 Z M80.554,23.745 L79.78,28.78 L72.149,28.78 C70.542,28.78 70.388,29.676 70.264,30.511 L70.048,31.869 L77.679,32.209 L76.907,37.185 L69.152,37.463 L67.823,45.866 L61.829,45.866 L64.517,28.812 C65.228,24.363 68.38,23.25 71.161,23.25 L71.3494647,23.250596 C72.3774803,23.2556021 77.3780851,23.3026596 80.554,23.745 Z M86.093,33.632 C85.197,33.848 84.301,34.28 83.93,36.969 C83.62,39.132 83.342,41.232 84.887,41.232 C86.185,41.232 86.803,40.645 86.896,39.626 L87.73,33.756 C87.483,33.539 86.71,33.478 86.093,33.632 Z M152.935,33.632 C152.039,33.848 151.142,34.28 150.771,36.969 C150.463,39.132 150.185,41.232 151.73,41.232 C153.027,41.232 153.646,40.645 153.738,39.626 L154.572,33.756 C154.325,33.539 153.552,33.478 152.935,33.632 Z M185.82,33.632 C184.925,33.848 184.029,34.28 183.658,36.969 C183.349,39.132 183.07,41.232 184.615,41.232 C185.912,41.232 186.531,40.645 186.625,39.626 L187.457,33.756 C187.211,33.539 186.439,33.478 185.82,33.632 Z M218.706,33.632 C217.811,33.848 216.913,34.28 216.544,36.969 C216.236,39.132 215.957,41.232 217.501,41.232 C218.8,41.232 219.417,40.645 219.509,39.626 L220.343,33.756 C220.097,33.539 219.325,33.478 218.706,33.632 Z M136.929,36.412 L133.562,36.412 L132.882,40.8 L136.25,40.8 C137.425,40.8 137.888,39.997 138.104,38.638 C138.289,37.494 138.134,36.412 136.929,36.412 Z M137.918,28.317 L134.859,28.317 L134.334,31.654 L137.393,31.654 C138.32,31.654 138.907,30.943 139.031,30.079 C139.247,28.72 138.598,28.317 137.918,28.317 Z" id="Combined-Shape" fill="#FFFFFF"></path>
                <g id="Group">
                    <g transform="translate(0.000000, 4.000000)" fill="#000000" id="Combined-Shape">
                        <path d="M57.016,70.181 L55.542,75.962 L28.36,73.069 L57.016,70.181 Z M42.706,58.631 L41.232,64.412 L15.681,61.521 L42.706,58.631 Z M36.486,46.958 L35.014,52.738 L6.383,49.847 L36.486,46.958 Z M39.434,35.397 L37.96,41.18 L9.9475983e-13,38.287 L39.434,35.397 Z M42.381,23.839 L40.908,29.619 L6.383,26.728 L42.381,23.839 Z M45.331,12.279 L43.854,18.06 L15.681,15.168 L45.331,12.279 Z M56.914,0.72 L55.44,6.5 L28.36,3.608 L56.914,0.72 Z"></path>
                    </g>
                    <path d="M56.986,3.478 C58.148,3.121 63.239,1.582 63.865,2.298 C64.491,3.013 66.17,4.762 66.727,5.607 C67.443,6.691 66.996,6.859 66.459,7.665 C65.922,8.471 62.792,12.138 59.572,14.016 C56.351,15.894 56.529,17.684 56.799,19.204 C57.067,20.725 58.14,24.302 55.457,30.294 C52.773,36.287 50.537,44.337 54.026,52.209 C57.515,60.08 61.808,66.341 62.345,69.292 C62.881,72.244 62.345,73.765 63.327,74.928 C64.312,76.09 63.865,80.563 58.945,79.847 C54.025,79.131 42.398,76.717 36.136,66.431 C29.875,56.144 26.656,40.67 32.738,28.506 C38.82,16.342 47.23,13.478 50.896,12.137 C54.563,10.795 55.824,3.836 56.986,3.478 Z" id="Path" fill="#FACC00"></path>
                    <path d="M62.346,69.291 C61.809,66.34 57.516,60.079 54.027,52.208 C50.538,44.336 52.775,36.286 55.458,30.293 C58.141,24.301 57.068,20.724 56.8,19.203 C56.732,18.822 56.67,18.426 56.666,18.015 C55.758,17.971 52.828,18.375 51.436,19.632 C46.798,23.821 41.971,32.54 43.138,44.175 C44.429,57.047 50.732,71.488 63.751,76.519 C63.772,75.851 63.608,75.255 63.329,74.926 C62.346,73.764 62.882,72.243 62.346,69.291 Z" id="Path" fill="#EEA200"></path>
                    <path d="M43.018,37.283 C43.018,37.283 43.097,36.805 43.29,35.995 C44.378,28.451 47.959,22.77 51.433,19.633 C52.239,18.906 53.558,18.465 54.703,18.231 C54.703,18.231 54.703,18.23 54.704,18.23 C54.704,18.23 53.791,12.454 48.099,13.222 C43.874,15.045 37.57,18.833 32.735,28.505 C29.321,35.333 28.839,43.205 30.179,50.615 C31.179,44.122 35.267,22.212 43.018,37.283 Z" id="Path" fill="#FDE06C"></path>
                    <path d="M59.958,82.031 C59.535,82.031 59.099,81.999 58.642,81.932 L58.642,81.932 C56.077,81.558 51.741,80.744 47.163,78.642 L47.163,78.642 C42.591,76.544 37.735,73.112 34.335,67.525 L34.335,67.525 C30.224,60.755 27.388,51.974 27.38,43.096 L27.38,43.096 C27.38,37.795 28.404,32.45 30.852,27.56 L30.852,27.56 C34.032,21.188 37.905,17.139 41.484,14.552 L41.484,14.552 C45.052,11.966 48.35,10.821 50.17,10.154 L50.17,10.154 C50.679,9.99 51.382,9.347 52.025,8.309 L52.025,8.309 C52.669,7.288 53.229,5.993 53.723,4.848 L53.723,4.848 C54.066,4.075 54.344,3.398 54.79,2.719 L54.79,2.719 C55.074,2.354 55.351,1.828 56.365,1.461 L56.365,1.461 C56.854,1.312 58.011,0.959 59.281,0.638 L59.281,0.638 C60.576,0.321 61.884,0.015 63.114,0 L63.114,0 C63.405,0.001 63.701,0.015 64.072,0.102 L64.072,0.102 C64.43,0.196 64.94,0.344 65.454,0.909 L65.454,0.909 C65.72,1.215 66.31,1.847 66.892,2.495 L66.892,2.495 C67.486,3.163 68.057,3.803 68.49,4.446 L68.49,4.446 C68.837,4.989 69.192,5.602 69.2090531,6.516 L69.2090531,6.516 C69.214,7.289 68.865,7.925 68.659,8.22 L68.659,8.22 C68.438,8.539 68.314,8.683 68.216,8.833 L68.216,8.833 C67.979,9.184 67.667,9.572 67.209,10.108 L67.209,10.108 C66.755,10.633 66.181,11.261 65.515,11.927 L65.515,11.927 C64.178,13.259 62.498,14.744 60.636,15.836 L60.636,15.836 C59.635,16.419 59.189,16.902 58.996,17.201 L58.996,17.201 C58.811,17.506 58.788,17.651 58.777,17.969 L58.777,17.969 C58.775,18.185 58.811,18.471 58.876,18.834 L58.876,18.834 C58.976,19.413 59.353,20.877 59.348,22.813 L59.348,22.813 C59.35,24.964 58.903,27.768 57.385,31.154 L57.385,31.154 C55.75,34.795 54.343,39.15 54.349,43.586 L54.349,43.586 C54.349,46.158 54.807,48.757 55.956,51.351 L55.956,51.351 C58.508,57.115 61.525,62.019 63.217,65.58 L63.217,65.58 C63.782,66.786 64.216,67.828 64.423,68.913 L64.423,68.913 C64.848,71.39 64.712,73.075 64.872,73.412 L64.872,73.412 C64.91,73.533 64.909,73.516 64.942,73.564 L64.942,73.564 C65.684,74.497 65.84,75.421 65.865,76.407 L65.865,76.407 C65.86,77.607 65.504,78.961 64.509,80.121 L64.509,80.121 C63.537,81.272 61.905,82.032 60.041,82.032 L60.041,82.032 C60.011,82.032 59.984,82.031 59.958,82.031 L59.958,82.031 Z M57.451,6.861 C56.852,8.222 56.097,9.992 54.903,11.554 L54.903,11.554 C54.104,12.588 53.065,13.582 51.622,14.117 L51.622,14.117 C49.776,14.791 47.035,15.749 43.96,17.97 L43.96,17.97 C40.898,20.191 37.527,23.654 34.626,29.448 L34.626,29.448 C32.521,33.653 31.5989769,38.334 31.5989769,43.096 L31.5989769,43.096 C31.59,51.058 34.211,59.221 37.94,65.331 L37.94,65.331 C40.801,70.03 44.888,72.949 48.926,74.808 L48.926,74.808 C52.957,76.663 56.895,77.416 59.245,77.756 L59.245,77.756 C59.514,77.795 59.751,77.811 59.958,77.811 L59.958,77.811 C60.88,77.788 61.113,77.562 61.319,77.356 L61.319,77.356 C61.517,77.141 61.648,76.739 61.642,76.407 L61.642,76.407 C61.644,76.307 61.632,76.222 61.622,76.171 L61.622,76.171 C61.217,75.661 60.945,75.069 60.801,74.527 L60.801,74.527 C60.641,73.938 60.596,73.411 60.563,72.911 L60.563,72.911 C60.503,71.912 60.503,70.964 60.268,69.667 L60.268,69.667 C60.206,69.278 59.903,68.431 59.402,67.385 L59.402,67.385 C58.903,66.332 58.22,65.049 57.436,63.598 L57.436,63.598 C55.865,60.689 53.887,57.1 52.097,53.062 L52.097,53.062 C50.686,49.883 50.125,46.663 50.127,43.587 L50.127,43.587 C50.131,38.266 51.767,33.38 53.53,29.432 L53.53,29.432 C54.821,26.537 55.123,24.394 55.127,22.815 L55.127,22.815 C55.123,21.357 54.879,20.44 54.719,19.569 L54.719,19.569 C54.647,19.144 54.557,18.606 54.555,17.97 L54.555,17.97 C54.545,17.065 54.78,15.93 55.451,14.91 L55.451,14.91 C56.116,13.884 57.123,13 58.507,12.191 L58.507,12.191 C60.554,11.014 62.863,8.699 64.01,7.353 L64.01,7.353 C64.388,6.915 64.669,6.546 64.7,6.495 L64.7,6.495 C64.71,6.48 64.718,6.467 64.728,6.453 L64.728,6.453 C64.489,6.153 64.119,5.719 63.75,5.313 L63.75,5.313 C63.411,4.935 63.069,4.565 62.772,4.238 L62.772,4.238 C62.207,4.3 61.21,4.494 60.312,4.729 L60.312,4.729 C59.489,4.937 58.697,5.166 58.143,5.331 L58.143,5.331 C57.974,5.659 57.728,6.216 57.451,6.861 L57.451,6.861 Z M57.226,4.257 L56.985,3.478 L57.226,4.257 L57.226,4.257 L57.226,4.257 Z" id="Shape" fill="#000000"></path>
                </g>
            </g>
        </g>
    </g>
</svg>